<?xml version="1.0" encoding="UTF-8" standalone="no"?>
<!-- Created with Inkscape (http://www.inkscape.org/) -->

<svg
   width="414.27148mm"
   height="42.074364mm"
   viewBox="0 0 414.27148 42.074364"
   version="1.1"
   id="svg1"
   xml:space="preserve"
   xmlns="http://www.w3.org/2000/svg"
   xmlnssvg="http://www.w3.org/2000/svg"><defs
     id="defs1" /><g
     id="layer1"
     transform="translate(106.02166,-106.91821)"><path
       style="fill:#ff611c;stroke:none"
       d="m -106.02166,127.26616 v 4.75802 c 8.787667,2.69253 10.785985,4.08029 22.255571,6.9654 24.833892,6.2468 49.81638,9.27537 75.3509881,9.90093 29.5384009,0.72365 58.7131939,-2.53011 88.0684559,-5.67478 33.628365,-3.60242 67.118785,-8.75454 100.467985,-14.38565 42.41963,-7.16267 85.00932,-14.91726 128.12848,-14.91726 v -6.99461 c -47.30573,0 -93.04633,8.59181 -139.5742,16.39435 -39.45888,6.61709 -79.087559,12.87149 -118.908311,16.72503 -23.256027,2.25054 -46.8479989,4.13825 -70.264003,3.11289 -20.898164,-0.91511 -41.968507,-3.4451 -62.315585,-8.53842 -7.908093,-1.97956 -23.209381,-7.3459 -23.209381,-7.3459 z"
       id="path1" /></g></svg>
